<svg width="37" height="37" viewBox="0 0 37 37" fill="none" xmlns="http://www.w3.org/2000/svg">
<path d="M18.5 17.7291C17.4778 17.7291 16.4975 17.323 15.7747 16.6002C15.0519 15.8774 14.6458 14.8971 14.6458 13.8749C14.6458 12.8527 15.0519 11.8724 15.7747 11.1496C16.4975 10.4268 17.4778 10.0208 18.5 10.0208C19.5222 10.0208 20.5025 10.4268 21.2253 11.1496C21.9481 11.8724 22.3542 12.8527 22.3542 13.8749C22.3542 14.3811 22.2545 14.8822 22.0608 15.3498C21.8671 15.8175 21.5832 16.2423 21.2253 16.6002C20.8674 16.9581 20.4425 17.242 19.9749 17.4357C19.5073 17.6294 19.0061 17.7291 18.5 17.7291ZM18.5 3.08325C15.6379 3.08325 12.893 4.22023 10.8691 6.24406C8.84531 8.26789 7.70834 11.0128 7.70834 13.8749C7.70834 21.9687 18.5 33.9166 18.5 33.9166C18.5 33.9166 29.2917 21.9687 29.2917 13.8749C29.2917 11.0128 28.1547 8.26789 26.1309 6.24406C24.107 4.22023 21.3621 3.08325 18.5 3.08325Z" fill="white"/>
</svg>
